<svg width="60" height="60" viewBox="0 0 60 60" fill="none" xmlns="http://www.w3.org/2000/svg">
<path d="M30.243 58.006C30.197 58.006 30.152 58.006 30.106 58.006C28.1895 58.0047 26.2793 57.7839 24.413 57.348C24.1686 57.2905 23.957 57.1383 23.8246 56.9249C23.6923 56.7116 23.65 56.4545 23.707 56.21C23.7331 56.0887 23.7831 55.9738 23.8541 55.8721C23.9251 55.7703 24.0156 55.6837 24.1204 55.6173C24.2252 55.5509 24.3423 55.5061 24.4646 55.4855C24.5869 55.4648 24.7122 55.4687 24.833 55.4969C26.3066 55.8365 27.8096 56.0328 29.321 56.083V54.2059C29.3169 54.08 29.3381 53.9545 29.3835 53.8369C29.4288 53.7193 29.4974 53.6122 29.5851 53.5216C29.6727 53.4311 29.7776 53.359 29.8937 53.3098C30.0097 53.2606 30.1345 53.2354 30.2605 53.2354C30.3865 53.2354 30.5112 53.2606 30.6273 53.3098C30.7433 53.359 30.8483 53.4311 30.9359 53.5216C31.0236 53.6122 31.0921 53.7193 31.1375 53.8369C31.1828 53.9545 31.2041 54.08 31.2 54.2059V56.075C34.6351 55.9171 37.9916 54.9947 41.025 53.375L40.099 51.754C39.9731 51.5358 39.9385 51.2766 40.003 51.0331C40.0674 50.7895 40.2256 50.5813 40.443 50.454C40.5498 50.3915 40.6679 50.3508 40.7905 50.3345C40.9132 50.3181 41.0378 50.3263 41.1572 50.3586C41.2766 50.3909 41.3884 50.4466 41.4861 50.5226C41.5837 50.5985 41.6653 50.6932 41.726 50.801L42.649 52.4189C45.596 50.5247 48.0886 48.0035 49.949 45.035L48.349 44.101C48.132 43.9732 47.9742 43.7651 47.9098 43.5217C47.8454 43.2783 47.8796 43.0194 48.005 42.801C48.0658 42.6933 48.1474 42.5987 48.2451 42.5228C48.3427 42.447 48.4545 42.3913 48.5739 42.359C48.6932 42.3267 48.8179 42.3185 48.9405 42.3348C49.0631 42.3511 49.1812 42.3916 49.288 42.454L50.888 43.391C52.5166 40.2678 53.431 36.8218 53.565 33.302H51.716C51.464 33.302 51.2224 33.2018 51.0443 33.0237C50.8661 32.8455 50.766 32.6039 50.766 32.3519C50.766 32.1 50.8661 31.8583 51.0443 31.6802C51.2224 31.502 51.464 31.402 51.716 31.402H53.572C53.438 27.8828 52.5236 24.4374 50.895 21.3149L49.295 22.251C49.1529 22.3347 48.9909 22.379 48.826 22.379C48.6604 22.3788 48.4979 22.3347 48.3549 22.2512C48.2119 22.1678 48.0936 22.048 48.012 21.9039C47.8864 21.6858 47.8519 21.4271 47.916 21.1837C47.98 20.9403 48.1374 20.7321 48.354 20.604L49.954 19.671C48.0936 16.7022 45.601 14.1806 42.654 12.286L41.731 13.9039C41.6495 14.0483 41.5311 14.1685 41.3879 14.252C41.2447 14.3354 41.0818 14.3793 40.916 14.379C40.7511 14.3793 40.5892 14.3354 40.447 14.252C40.2299 14.1244 40.0718 13.9164 40.0072 13.673C39.9426 13.4296 39.9767 13.1705 40.102 12.952L41.029 11.33C37.9957 9.71013 34.6391 8.78776 31.204 8.63V10.501C31.204 10.7503 31.1049 10.9894 30.9286 11.1656C30.7524 11.3419 30.5133 11.441 30.264 11.441C30.0147 11.441 29.7756 11.3419 29.5993 11.1656C29.423 10.9894 29.324 10.7503 29.324 10.501V8.62402C29.048 8.63702 28.764 8.65498 28.456 8.67798L27.447 8.75598C26.5686 8.85858 25.6965 9.01013 24.835 9.20996C24.7141 9.23781 24.5889 9.24136 24.4667 9.22046C24.3444 9.19956 24.2275 9.15467 24.1228 9.08826C24.0181 9.02184 23.9275 8.93528 23.8565 8.83362C23.7855 8.73195 23.7353 8.61716 23.709 8.49597C23.652 8.25146 23.6943 7.99435 23.8267 7.78101C23.959 7.56766 24.1706 7.41557 24.415 7.35803C25.4135 7.12755 26.425 6.95754 27.444 6.849V5.74902H26.035C25.4137 5.73627 24.8221 5.48042 24.3872 5.0365C23.9523 4.59258 23.7087 3.99596 23.7087 3.37451C23.7087 2.75306 23.9523 2.15632 24.3872 1.7124C24.8221 1.26849 25.4137 1.01275 26.035 1H34.492C35.1133 1.01275 35.7049 1.26849 36.1398 1.7124C36.5747 2.15632 36.8182 2.75306 36.8182 3.37451C36.8182 3.99596 36.5747 4.59258 36.1398 5.0365C35.7049 5.48042 35.1133 5.73627 34.492 5.74902H33.083V6.88098C36.4884 7.2855 39.7742 8.38633 42.736 10.115C42.756 10.126 42.777 10.124 42.796 10.136C42.815 10.148 42.825 10.166 42.843 10.178C44.4703 11.1363 45.9859 12.2727 47.362 13.566L49.381 11.527L48.052 10.182L52.039 6.15198L56.025 10.182L52.039 14.212L50.71 12.869L48.692 14.9089C49.973 16.304 51.0964 17.8359 52.042 19.4769C52.055 19.4939 52.072 19.5059 52.083 19.5239C52.094 19.5419 52.093 19.565 52.103 19.585C54.3174 23.4747 55.4819 27.8736 55.4819 32.3495C55.4819 36.8254 54.3174 41.2243 52.103 45.114C52.093 45.134 52.094 45.155 52.083 45.174C52.072 45.193 52.044 45.223 52.026 45.249C49.8136 49.0788 46.6502 52.2727 42.842 54.522C42.824 54.534 42.814 54.552 42.795 54.563C42.7664 54.5773 42.737 54.59 42.707 54.601C38.9337 56.7976 34.651 57.9678 30.285 57.995C30.277 57.995 30.271 57.995 30.262 57.995C30.253 57.995 30.249 58.006 30.243 58.006ZM50.704 10.192L52.034 11.537L53.362 10.192L52.034 8.84802L50.704 10.192ZM31.204 6.73096V3.86096H34.493C34.619 3.86096 34.7398 3.81088 34.8289 3.7218C34.9179 3.63272 34.968 3.51196 34.968 3.38599C34.968 3.26001 34.9179 3.13913 34.8289 3.05005C34.7398 2.96097 34.619 2.91101 34.493 2.91101H26.036C25.91 2.91101 25.7892 2.96097 25.7001 3.05005C25.6111 3.13913 25.561 3.26001 25.561 3.38599C25.561 3.51196 25.6111 3.63272 25.7001 3.7218C25.7892 3.81088 25.91 3.86096 26.036 3.86096H29.316V6.73096C29.429 6.72596 29.532 6.731 29.641 6.724C29.795 6.724 29.949 6.71094 30.103 6.71094H30.174H30.256C30.56 6.70594 30.872 6.71195 31.199 6.72595L31.204 6.73096ZM15.229 49.46C14.977 49.46 14.7354 49.3599 14.5573 49.1818C14.3791 49.0036 14.279 48.762 14.279 48.51C14.279 48.2581 14.3791 48.0164 14.5573 47.8383C14.7354 47.6601 14.977 47.5599 15.229 47.5599H21.806C22.0579 47.5599 22.2996 47.6601 22.4777 47.8383C22.6559 48.0164 22.756 48.2581 22.756 48.51C22.756 48.762 22.6559 49.0036 22.4777 49.1818C22.2996 49.3599 22.0579 49.46 21.806 49.46H15.229ZM9.591 42.8099C9.33905 42.8099 9.09741 42.7099 8.91925 42.5317C8.74109 42.3536 8.64099 42.1119 8.64099 41.86C8.64099 41.608 8.74109 41.3664 8.91925 41.1882C9.09741 41.0101 9.33905 40.91 9.591 40.91H21.807C22.059 40.91 22.3006 41.0101 22.4788 41.1882C22.6569 41.3664 22.757 41.608 22.757 41.86C22.757 42.1119 22.6569 42.3536 22.4788 42.5317C22.3006 42.7099 22.059 42.8099 21.807 42.8099H9.591ZM28.426 36.118C28.0837 35.7704 27.82 35.3532 27.6528 34.8949C27.4855 34.4366 27.4186 33.9477 27.4565 33.4613C27.4944 32.9749 27.6363 32.5023 27.8726 32.0754C28.1088 31.6486 28.434 31.2773 28.826 30.9869L40.991 22.087C41.1719 21.9554 41.3941 21.893 41.6171 21.9114C41.84 21.9297 42.049 22.0276 42.206 22.187C42.3644 22.3473 42.4613 22.5581 42.4796 22.7827C42.4978 23.0073 42.4364 23.2313 42.306 23.415L33.506 35.715C33.2235 36.1106 32.8579 36.4397 32.4349 36.6791C32.0118 36.9185 31.5416 37.0624 31.057 37.101C30.968 37.108 30.881 37.1119 30.793 37.1119C30.351 37.1115 29.9136 37.023 29.5063 36.8514C29.0991 36.6799 28.7301 36.4289 28.421 36.113L28.426 36.118ZM29.926 32.5229C29.6652 32.7127 29.4733 32.9823 29.3793 33.2908C29.2852 33.5993 29.2942 33.93 29.4048 34.2329C29.5154 34.5359 29.7216 34.7946 29.9922 34.97C30.2629 35.1453 30.5833 35.2278 30.905 35.205C31.1176 35.1879 31.324 35.1247 31.5096 35.0197C31.6953 34.9146 31.8558 34.7704 31.98 34.5969L37.347 27.0969L29.926 32.5229ZM3.95001 36.1589C3.69806 36.1589 3.45642 36.0589 3.27826 35.8807C3.1001 35.7026 3 35.4609 3 35.209C3 34.957 3.1001 34.7154 3.27826 34.5372C3.45642 34.3591 3.69806 34.259 3.95001 34.259H21.804C22.056 34.259 22.2976 34.3591 22.4758 34.5372C22.6539 34.7154 22.754 34.957 22.754 35.209C22.754 35.4609 22.6539 35.7026 22.4758 35.8807C22.2976 36.0589 22.056 36.1589 21.804 36.1589H3.95001ZM7.70898 29.51C7.45703 29.51 7.21539 29.4098 7.03723 29.2317C6.85907 29.0535 6.75897 28.8119 6.75897 28.5599C6.75897 28.308 6.85907 28.0663 7.03723 27.8882C7.21539 27.71 7.45703 27.61 7.70898 27.61H21.804C22.056 27.61 22.2976 27.71 22.4758 27.8882C22.6539 28.0663 22.754 28.308 22.754 28.5599C22.754 28.8119 22.6539 29.0535 22.4758 29.2317C22.2976 29.4098 22.056 29.51 21.804 29.51H7.70898ZM12.409 22.859C12.157 22.859 11.9154 22.7588 11.7372 22.5807C11.5591 22.4025 11.459 22.1609 11.459 21.9089C11.459 21.657 11.5591 21.4153 11.7372 21.2372C11.9154 21.059 12.157 20.959 12.409 20.959H21.809C22.061 20.959 22.3026 21.059 22.4807 21.2372C22.6589 21.4153 22.759 21.657 22.759 21.9089C22.759 22.1609 22.6589 22.4025 22.4807 22.5807C22.3026 22.7588 22.061 22.859 21.809 22.859H12.409ZM17.109 16.209C16.8571 16.209 16.6154 16.1089 16.4373 15.9308C16.2591 15.7526 16.159 15.511 16.159 15.259C16.159 15.0071 16.2591 14.7654 16.4373 14.5873C16.6154 14.4091 16.8571 14.309 17.109 14.309H21.809C22.061 14.309 22.3026 14.4091 22.4807 14.5873C22.6589 14.7654 22.759 15.0071 22.759 15.259C22.759 15.511 22.6589 15.7526 22.4807 15.9308C22.3026 16.1089 22.061 16.209 21.809 16.209H17.109Z" fill="#FF4361"/>
</svg>
